<svg xmlns="http://www.w3.org/2000/svg" xmlns:xlink="http://www.w3.org/1999/xlink" width="392" zoomAndPan="magnify" viewBox="0 0 294 200.249992" height="267" preserveAspectRatio="xMidYMid meet" version="1.0"><defs><g/><clipPath id="0dbcf83314"><path d="M 75.269531 74.71875 L 218.730469 74.71875 L 218.730469 87.421875 L 75.269531 87.421875 Z M 75.269531 74.71875 " clip-rule="nonzero"/></clipPath><clipPath id="276a5c66a9"><path d="M 75.269531 88.757812 L 147 88.757812 L 147 124.625 L 75.269531 124.625 Z M 75.269531 88.757812 " clip-rule="nonzero"/></clipPath><clipPath id="faf0888aaf"><path d="M 147 88.757812 L 218.730469 88.757812 L 218.730469 124.625 L 147 124.625 Z M 147 88.757812 " clip-rule="nonzero"/></clipPath></defs><g clip-path="url(#0dbcf83314)"><path fill="#ffffff" d="M 75.320312 74.71875 L 218.679688 74.71875 L 218.679688 87.421875 L 75.320312 87.421875 L 75.320312 74.71875 " fill-opacity="1" fill-rule="nonzero"/></g><g clip-path="url(#276a5c66a9)"><path stroke-linecap="butt" transform="matrix(0.747201, 0, 0, 0.747201, 75.268656, 88.759037)" fill-opacity="1" fill="#d9d9d9" fill-rule="nonzero" stroke-linejoin="miter" d="M 0.00117074 -0.00163889 L 96.000008 -0.00163889 L 96.000008 48.000394 L 0.00117074 48.000394 L 0.00117074 -0.00163889 " stroke="#000000" stroke-width="8" stroke-opacity="1" stroke-miterlimit="4"/></g><g fill="#000000" fill-opacity="1"><g transform="translate(92.839565, 111.17508)"><g><path d="M 6.71875 -2.171875 C 6.582031 -1.472656 6.257812 -0.90625 5.75 -0.46875 C 5.25 -0.0390625 4.578125 0.171875 3.734375 0.171875 C 3.296875 0.171875 2.882812 0.101562 2.5 -0.03125 C 2.125 -0.164062 1.796875 -0.359375 1.515625 -0.609375 C 1.234375 -0.867188 1.015625 -1.1875 0.859375 -1.5625 C 0.703125 -1.9375 0.625 -2.363281 0.625 -2.84375 L 0.625 -2.984375 C 0.625 -3.460938 0.703125 -3.894531 0.859375 -4.28125 C 1.015625 -4.664062 1.234375 -4.992188 1.515625 -5.265625 C 1.804688 -5.535156 2.140625 -5.738281 2.515625 -5.875 C 2.890625 -6.019531 3.296875 -6.09375 3.734375 -6.09375 C 4.554688 -6.09375 5.222656 -5.878906 5.734375 -5.453125 C 6.253906 -5.023438 6.582031 -4.457031 6.71875 -3.75 L 5.234375 -3.375 C 5.179688 -3.71875 5.03125 -4.015625 4.78125 -4.265625 C 4.53125 -4.523438 4.171875 -4.65625 3.703125 -4.65625 C 3.484375 -4.65625 3.28125 -4.613281 3.09375 -4.53125 C 2.90625 -4.457031 2.738281 -4.347656 2.59375 -4.203125 C 2.445312 -4.054688 2.332031 -3.875 2.25 -3.65625 C 2.164062 -3.445312 2.125 -3.210938 2.125 -2.953125 L 2.125 -2.875 C 2.125 -2.613281 2.164062 -2.378906 2.25 -2.171875 C 2.332031 -1.972656 2.445312 -1.804688 2.59375 -1.671875 C 2.738281 -1.535156 2.90625 -1.429688 3.09375 -1.359375 C 3.28125 -1.296875 3.484375 -1.265625 3.703125 -1.265625 C 4.171875 -1.265625 4.523438 -1.378906 4.765625 -1.609375 C 5.003906 -1.835938 5.160156 -2.148438 5.234375 -2.546875 Z M 6.71875 -2.171875 "/></g></g></g><g fill="#000000" fill-opacity="1"><g transform="translate(100.156179, 111.17508)"><g><path d="M 6.734375 -2.890625 C 6.734375 -2.398438 6.648438 -1.960938 6.484375 -1.578125 C 6.316406 -1.203125 6.085938 -0.882812 5.796875 -0.625 C 5.515625 -0.363281 5.1875 -0.164062 4.8125 -0.03125 C 4.445312 0.101562 4.0625 0.171875 3.65625 0.171875 C 3.25 0.171875 2.859375 0.101562 2.484375 -0.03125 C 2.117188 -0.164062 1.789062 -0.363281 1.5 -0.625 C 1.21875 -0.882812 0.992188 -1.203125 0.828125 -1.578125 C 0.660156 -1.960938 0.578125 -2.398438 0.578125 -2.890625 L 0.578125 -3.03125 C 0.578125 -3.519531 0.660156 -3.953125 0.828125 -4.328125 C 0.992188 -4.710938 1.21875 -5.035156 1.5 -5.296875 C 1.789062 -5.554688 2.117188 -5.753906 2.484375 -5.890625 C 2.859375 -6.023438 3.25 -6.09375 3.65625 -6.09375 C 4.0625 -6.09375 4.445312 -6.023438 4.8125 -5.890625 C 5.1875 -5.753906 5.515625 -5.554688 5.796875 -5.296875 C 6.085938 -5.035156 6.316406 -4.710938 6.484375 -4.328125 C 6.648438 -3.953125 6.734375 -3.519531 6.734375 -3.03125 Z M 3.65625 -1.265625 C 3.875 -1.265625 4.078125 -1.300781 4.265625 -1.375 C 4.453125 -1.445312 4.617188 -1.550781 4.765625 -1.6875 C 4.910156 -1.820312 5.023438 -1.984375 5.109375 -2.171875 C 5.191406 -2.367188 5.234375 -2.59375 5.234375 -2.84375 L 5.234375 -3.078125 C 5.234375 -3.328125 5.191406 -3.550781 5.109375 -3.75 C 5.023438 -3.945312 4.910156 -4.113281 4.765625 -4.25 C 4.617188 -4.382812 4.453125 -4.484375 4.265625 -4.546875 C 4.078125 -4.617188 3.875 -4.65625 3.65625 -4.65625 C 3.4375 -4.65625 3.234375 -4.617188 3.046875 -4.546875 C 2.859375 -4.484375 2.691406 -4.382812 2.546875 -4.25 C 2.398438 -4.113281 2.285156 -3.945312 2.203125 -3.75 C 2.117188 -3.550781 2.078125 -3.328125 2.078125 -3.078125 L 2.078125 -2.84375 C 2.078125 -2.59375 2.117188 -2.367188 2.203125 -2.171875 C 2.285156 -1.984375 2.398438 -1.820312 2.546875 -1.6875 C 2.691406 -1.550781 2.859375 -1.445312 3.046875 -1.375 C 3.234375 -1.300781 3.4375 -1.265625 3.65625 -1.265625 Z M 3.65625 -1.265625 "/></g></g></g><g fill="#000000" fill-opacity="1"><g transform="translate(107.472792, 111.17508)"><g><path d="M 2.265625 -2.46875 C 2.265625 -2.300781 2.300781 -2.140625 2.375 -1.984375 C 2.457031 -1.835938 2.5625 -1.710938 2.6875 -1.609375 C 2.820312 -1.503906 2.972656 -1.421875 3.140625 -1.359375 C 3.316406 -1.296875 3.5 -1.265625 3.6875 -1.265625 C 4.0625 -1.265625 4.347656 -1.328125 4.546875 -1.453125 C 4.753906 -1.585938 4.898438 -1.75 4.984375 -1.9375 L 6.28125 -1.21875 C 6.207031 -1.0625 6.101562 -0.898438 5.96875 -0.734375 C 5.84375 -0.578125 5.675781 -0.429688 5.46875 -0.296875 C 5.269531 -0.160156 5.023438 -0.0507812 4.734375 0.03125 C 4.441406 0.125 4.101562 0.171875 3.71875 0.171875 C 3.269531 0.171875 2.863281 0.0976562 2.5 -0.046875 C 2.132812 -0.191406 1.816406 -0.398438 1.546875 -0.671875 C 1.273438 -0.941406 1.066406 -1.269531 0.921875 -1.65625 C 0.773438 -2.050781 0.703125 -2.492188 0.703125 -2.984375 L 0.703125 -3.0625 C 0.703125 -3.507812 0.78125 -3.921875 0.9375 -4.296875 C 1.09375 -4.671875 1.304688 -4.988281 1.578125 -5.25 C 1.847656 -5.519531 2.164062 -5.726562 2.53125 -5.875 C 2.894531 -6.019531 3.28125 -6.09375 3.6875 -6.09375 C 4.195312 -6.09375 4.632812 -6.003906 5 -5.828125 C 5.375 -5.648438 5.679688 -5.421875 5.921875 -5.140625 C 6.160156 -4.867188 6.332031 -4.566406 6.4375 -4.234375 C 6.550781 -3.898438 6.609375 -3.582031 6.609375 -3.28125 L 6.609375 -2.46875 Z M 3.6875 -4.734375 C 3.300781 -4.734375 2.988281 -4.632812 2.75 -4.4375 C 2.507812 -4.238281 2.351562 -4.015625 2.28125 -3.765625 L 5.078125 -3.765625 C 5.035156 -4.046875 4.882812 -4.273438 4.625 -4.453125 C 4.375 -4.640625 4.0625 -4.734375 3.6875 -4.734375 Z M 3.6875 -4.734375 "/></g></g></g><g fill="#000000" fill-opacity="1"><g transform="translate(114.789405, 111.17508)"><g><path d="M 0.890625 -5.921875 L 2.5625 -5.921875 L 2.5625 -7.140625 C 2.5625 -7.484375 2.675781 -7.769531 2.90625 -8 C 3.144531 -8.238281 3.4375 -8.359375 3.78125 -8.359375 L 6.1875 -8.359375 L 6.1875 -6.9375 L 4.40625 -6.9375 C 4.1875 -6.9375 4.078125 -6.816406 4.078125 -6.578125 L 4.078125 -5.921875 L 6.40625 -5.921875 L 6.40625 -4.5 L 4.078125 -4.5 L 4.078125 0 L 2.5625 0 L 2.5625 -4.5 L 0.890625 -4.5 Z M 0.890625 -5.921875 "/></g></g></g><g fill="#000000" fill-opacity="1"><g transform="translate(122.106019, 111.17508)"><g><path d="M 0.765625 -5.921875 L 2.515625 -5.921875 L 2.515625 -8.359375 L 4.03125 -8.359375 L 4.03125 -5.921875 L 6.171875 -5.921875 L 6.171875 -4.5 L 4.03125 -4.5 L 4.03125 -1.796875 C 4.03125 -1.554688 4.132812 -1.4375 4.34375 -1.4375 L 5.953125 -1.4375 L 5.953125 0 L 3.4375 0 C 3.164062 0 2.941406 -0.0859375 2.765625 -0.265625 C 2.597656 -0.441406 2.515625 -0.664062 2.515625 -0.9375 L 2.515625 -4.5 L 0.765625 -4.5 Z M 0.765625 -5.921875 "/></g></g></g><g clip-path="url(#faf0888aaf)"><path stroke-linecap="butt" transform="matrix(0.747201, 0, 0, 0.747201, 146.999994, 88.759037)" fill-opacity="1" fill="#d9d9d9" fill-rule="nonzero" stroke-linejoin="miter" d="M 0.00000816667 -0.00163889 L 95.998846 -0.00163889 L 95.998846 48.000394 L 0.00000816667 48.000394 L 0.00000816667 -0.00163889 " stroke="#000000" stroke-width="8" stroke-opacity="1" stroke-miterlimit="4"/></g><g fill="#000000" fill-opacity="1"><g transform="translate(171.891142, 111.17508)"><g><path d="M 2.265625 -2.46875 C 2.265625 -2.300781 2.300781 -2.140625 2.375 -1.984375 C 2.457031 -1.835938 2.5625 -1.710938 2.6875 -1.609375 C 2.820312 -1.503906 2.972656 -1.421875 3.140625 -1.359375 C 3.316406 -1.296875 3.5 -1.265625 3.6875 -1.265625 C 4.0625 -1.265625 4.347656 -1.328125 4.546875 -1.453125 C 4.753906 -1.585938 4.898438 -1.75 4.984375 -1.9375 L 6.28125 -1.21875 C 6.207031 -1.0625 6.101562 -0.898438 5.96875 -0.734375 C 5.84375 -0.578125 5.675781 -0.429688 5.46875 -0.296875 C 5.269531 -0.160156 5.023438 -0.0507812 4.734375 0.03125 C 4.441406 0.125 4.101562 0.171875 3.71875 0.171875 C 3.269531 0.171875 2.863281 0.0976562 2.5 -0.046875 C 2.132812 -0.191406 1.816406 -0.398438 1.546875 -0.671875 C 1.273438 -0.941406 1.066406 -1.269531 0.921875 -1.65625 C 0.773438 -2.050781 0.703125 -2.492188 0.703125 -2.984375 L 0.703125 -3.0625 C 0.703125 -3.507812 0.78125 -3.921875 0.9375 -4.296875 C 1.09375 -4.671875 1.304688 -4.988281 1.578125 -5.25 C 1.847656 -5.519531 2.164062 -5.726562 2.53125 -5.875 C 2.894531 -6.019531 3.28125 -6.09375 3.6875 -6.09375 C 4.195312 -6.09375 4.632812 -6.003906 5 -5.828125 C 5.375 -5.648438 5.679688 -5.421875 5.921875 -5.140625 C 6.160156 -4.867188 6.332031 -4.566406 6.4375 -4.234375 C 6.550781 -3.898438 6.609375 -3.582031 6.609375 -3.28125 L 6.609375 -2.46875 Z M 3.6875 -4.734375 C 3.300781 -4.734375 2.988281 -4.632812 2.75 -4.4375 C 2.507812 -4.238281 2.351562 -4.015625 2.28125 -3.765625 L 5.078125 -3.765625 C 5.035156 -4.046875 4.882812 -4.273438 4.625 -4.453125 C 4.375 -4.640625 4.0625 -4.734375 3.6875 -4.734375 Z M 3.6875 -4.734375 "/></g></g></g><g fill="#000000" fill-opacity="1"><g transform="translate(179.207755, 111.17508)"><g><path d="M 4.859375 -5.921875 L 6.53125 -5.921875 L 5.09375 -3.140625 L 5.09375 -2.921875 L 6.609375 0 L 4.875 0 L 3.765625 -2.3125 L 3.546875 -2.3125 L 2.4375 0 L 0.703125 0 L 2.21875 -2.921875 L 2.21875 -3.140625 L 0.78125 -5.921875 L 2.453125 -5.921875 L 3.546875 -3.75 L 3.765625 -3.75 Z M 4.859375 -5.921875 "/></g></g></g><g fill="#000000" fill-opacity="1"><g transform="translate(186.524368, 111.17508)"><g><path d="M 2.125 2.390625 L 0.625 2.390625 L 0.625 -5.921875 L 2.125 -5.921875 L 2.125 -5.0625 L 2.34375 -5.0625 C 2.5 -5.394531 2.726562 -5.648438 3.03125 -5.828125 C 3.332031 -6.003906 3.722656 -6.09375 4.203125 -6.09375 C 4.546875 -6.09375 4.875 -6.023438 5.1875 -5.890625 C 5.507812 -5.753906 5.785156 -5.554688 6.015625 -5.296875 C 6.253906 -5.035156 6.441406 -4.71875 6.578125 -4.34375 C 6.722656 -3.976562 6.796875 -3.554688 6.796875 -3.078125 L 6.796875 -2.859375 C 6.796875 -2.367188 6.726562 -1.9375 6.59375 -1.5625 C 6.457031 -1.1875 6.269531 -0.867188 6.03125 -0.609375 C 5.800781 -0.359375 5.53125 -0.164062 5.21875 -0.03125 C 4.90625 0.101562 4.566406 0.171875 4.203125 0.171875 C 3.929688 0.171875 3.691406 0.140625 3.484375 0.078125 C 3.285156 0.0234375 3.113281 -0.046875 2.96875 -0.140625 C 2.820312 -0.234375 2.695312 -0.34375 2.59375 -0.46875 C 2.5 -0.59375 2.414062 -0.722656 2.34375 -0.859375 L 2.125 -0.859375 Z M 3.703125 -1.265625 C 4.171875 -1.265625 4.550781 -1.410156 4.84375 -1.703125 C 5.132812 -1.992188 5.28125 -2.390625 5.28125 -2.890625 L 5.28125 -3.03125 C 5.28125 -3.539062 5.132812 -3.9375 4.84375 -4.21875 C 4.550781 -4.507812 4.171875 -4.65625 3.703125 -4.65625 C 3.234375 -4.65625 2.851562 -4.503906 2.5625 -4.203125 C 2.269531 -3.910156 2.125 -3.519531 2.125 -3.03125 L 2.125 -2.890625 C 2.125 -2.398438 2.269531 -2.003906 2.5625 -1.703125 C 2.851562 -1.410156 3.234375 -1.265625 3.703125 -1.265625 Z M 3.703125 -1.265625 "/></g></g></g><g fill="#000000" fill-opacity="1"><g transform="translate(75.268656, 86.227045)"><g><path d="M 2.828125 -4.25 C 2.828125 -4.0625 2.925781 -3.925781 3.125 -3.84375 C 3.320312 -3.757812 3.679688 -3.691406 4.203125 -3.640625 C 4.804688 -3.566406 5.300781 -3.378906 5.6875 -3.078125 C 6.070312 -2.785156 6.265625 -2.375 6.265625 -1.84375 L 6.265625 -1.765625 C 6.265625 -1.179688 6.046875 -0.710938 5.609375 -0.359375 C 5.179688 -0.00390625 4.578125 0.171875 3.796875 0.171875 C 3.335938 0.171875 2.941406 0.113281 2.609375 0 C 2.285156 -0.125 2.015625 -0.273438 1.796875 -0.453125 C 1.585938 -0.640625 1.425781 -0.84375 1.3125 -1.0625 C 1.195312 -1.28125 1.117188 -1.492188 1.078125 -1.703125 L 2.46875 -2.15625 C 2.53125 -1.894531 2.660156 -1.664062 2.859375 -1.46875 C 3.066406 -1.28125 3.378906 -1.1875 3.796875 -1.1875 C 4.171875 -1.1875 4.425781 -1.242188 4.5625 -1.359375 C 4.707031 -1.484375 4.78125 -1.613281 4.78125 -1.75 C 4.78125 -1.820312 4.757812 -1.890625 4.71875 -1.953125 C 4.6875 -2.023438 4.625 -2.09375 4.53125 -2.15625 C 4.4375 -2.21875 4.304688 -2.265625 4.140625 -2.296875 C 3.972656 -2.335938 3.769531 -2.375 3.53125 -2.40625 C 2.851562 -2.457031 2.316406 -2.628906 1.921875 -2.921875 C 1.535156 -3.210938 1.34375 -3.640625 1.34375 -4.203125 L 1.34375 -4.28125 C 1.34375 -4.570312 1.40625 -4.828125 1.53125 -5.046875 C 1.65625 -5.273438 1.820312 -5.46875 2.03125 -5.625 C 2.238281 -5.78125 2.476562 -5.894531 2.75 -5.96875 C 3.019531 -6.050781 3.296875 -6.09375 3.578125 -6.09375 C 3.953125 -6.09375 4.273438 -6.046875 4.546875 -5.953125 C 4.828125 -5.867188 5.0625 -5.75 5.25 -5.59375 C 5.445312 -5.445312 5.601562 -5.285156 5.71875 -5.109375 C 5.84375 -4.929688 5.9375 -4.757812 6 -4.59375 L 4.640625 -4.046875 C 4.566406 -4.253906 4.441406 -4.421875 4.265625 -4.546875 C 4.085938 -4.671875 3.859375 -4.734375 3.578125 -4.734375 C 3.328125 -4.734375 3.140625 -4.6875 3.015625 -4.59375 C 2.890625 -4.5 2.828125 -4.382812 2.828125 -4.25 Z M 2.828125 -4.25 "/></g></g></g><g fill="#000000" fill-opacity="1"><g transform="translate(82.58527, 86.227045)"><g><path d="M 0.765625 -5.921875 L 2.515625 -5.921875 L 2.515625 -8.359375 L 4.03125 -8.359375 L 4.03125 -5.921875 L 6.171875 -5.921875 L 6.171875 -4.5 L 4.03125 -4.5 L 4.03125 -1.796875 C 4.03125 -1.554688 4.132812 -1.4375 4.34375 -1.4375 L 5.953125 -1.4375 L 5.953125 0 L 3.4375 0 C 3.164062 0 2.941406 -0.0859375 2.765625 -0.265625 C 2.597656 -0.441406 2.515625 -0.664062 2.515625 -0.9375 L 2.515625 -4.5 L 0.765625 -4.5 Z M 0.765625 -5.921875 "/></g></g></g><g fill="#000000" fill-opacity="1"><g transform="translate(89.901883, 86.227045)"><g><path d="M 0.640625 -5.921875 L 3.15625 -5.921875 L 3.15625 -5.0625 L 3.375 -5.0625 C 3.476562 -5.394531 3.664062 -5.648438 3.9375 -5.828125 C 4.207031 -6.003906 4.53125 -6.09375 4.90625 -6.09375 C 5.488281 -6.09375 5.957031 -5.90625 6.3125 -5.53125 C 6.675781 -5.164062 6.859375 -4.601562 6.859375 -3.84375 L 6.859375 -3.578125 L 5.3125 -3.4375 L 5.3125 -3.609375 C 5.3125 -3.929688 5.226562 -4.191406 5.0625 -4.390625 C 4.894531 -4.585938 4.640625 -4.6875 4.296875 -4.6875 C 3.960938 -4.6875 3.703125 -4.570312 3.515625 -4.34375 C 3.328125 -4.113281 3.234375 -3.78125 3.234375 -3.34375 L 3.234375 -1.4375 L 4.59375 -1.4375 L 4.59375 0 L 0.5 0 L 0.5 -1.4375 L 1.71875 -1.4375 L 1.71875 -4.5 L 0.640625 -4.5 Z M 0.640625 -5.921875 "/></g></g></g><g fill="#000000" fill-opacity="1"><g transform="translate(97.218497, 86.227045)"><g><path d="M 4.953125 -5.921875 L 6.453125 -5.921875 L 6.453125 0 L 4.953125 0 L 4.953125 -0.859375 L 4.734375 -0.859375 C 4.472656 -0.171875 3.90625 0.171875 3.03125 0.171875 C 2.738281 0.171875 2.460938 0.117188 2.203125 0.015625 C 1.953125 -0.078125 1.726562 -0.222656 1.53125 -0.421875 C 1.34375 -0.617188 1.195312 -0.863281 1.09375 -1.15625 C 0.988281 -1.457031 0.9375 -1.8125 0.9375 -2.21875 L 0.9375 -5.921875 L 2.4375 -5.921875 L 2.4375 -2.53125 C 2.4375 -2.113281 2.535156 -1.785156 2.734375 -1.546875 C 2.929688 -1.304688 3.234375 -1.1875 3.640625 -1.1875 C 4.085938 -1.1875 4.414062 -1.332031 4.625 -1.625 C 4.84375 -1.914062 4.953125 -2.316406 4.953125 -2.828125 Z M 4.953125 -5.921875 "/></g></g></g><g fill="#000000" fill-opacity="1"><g transform="translate(104.53511, 86.227045)"><g><path d="M 6.71875 -2.171875 C 6.582031 -1.472656 6.257812 -0.90625 5.75 -0.46875 C 5.25 -0.0390625 4.578125 0.171875 3.734375 0.171875 C 3.296875 0.171875 2.882812 0.101562 2.5 -0.03125 C 2.125 -0.164062 1.796875 -0.359375 1.515625 -0.609375 C 1.234375 -0.867188 1.015625 -1.1875 0.859375 -1.5625 C 0.703125 -1.9375 0.625 -2.363281 0.625 -2.84375 L 0.625 -2.984375 C 0.625 -3.460938 0.703125 -3.894531 0.859375 -4.28125 C 1.015625 -4.664062 1.234375 -4.992188 1.515625 -5.265625 C 1.804688 -5.535156 2.140625 -5.738281 2.515625 -5.875 C 2.890625 -6.019531 3.296875 -6.09375 3.734375 -6.09375 C 4.554688 -6.09375 5.222656 -5.878906 5.734375 -5.453125 C 6.253906 -5.023438 6.582031 -4.457031 6.71875 -3.75 L 5.234375 -3.375 C 5.179688 -3.71875 5.03125 -4.015625 4.78125 -4.265625 C 4.53125 -4.523438 4.171875 -4.65625 3.703125 -4.65625 C 3.484375 -4.65625 3.28125 -4.613281 3.09375 -4.53125 C 2.90625 -4.457031 2.738281 -4.347656 2.59375 -4.203125 C 2.445312 -4.054688 2.332031 -3.875 2.25 -3.65625 C 2.164062 -3.445312 2.125 -3.210938 2.125 -2.953125 L 2.125 -2.875 C 2.125 -2.613281 2.164062 -2.378906 2.25 -2.171875 C 2.332031 -1.972656 2.445312 -1.804688 2.59375 -1.671875 C 2.738281 -1.535156 2.90625 -1.429688 3.09375 -1.359375 C 3.28125 -1.296875 3.484375 -1.265625 3.703125 -1.265625 C 4.171875 -1.265625 4.523438 -1.378906 4.765625 -1.609375 C 5.003906 -1.835938 5.160156 -2.148438 5.234375 -2.546875 Z M 6.71875 -2.171875 "/></g></g></g><g fill="#000000" fill-opacity="1"><g transform="translate(111.851723, 86.227045)"><g><path d="M 0.765625 -5.921875 L 2.515625 -5.921875 L 2.515625 -8.359375 L 4.03125 -8.359375 L 4.03125 -5.921875 L 6.171875 -5.921875 L 6.171875 -4.5 L 4.03125 -4.5 L 4.03125 -1.796875 C 4.03125 -1.554688 4.132812 -1.4375 4.34375 -1.4375 L 5.953125 -1.4375 L 5.953125 0 L 3.4375 0 C 3.164062 0 2.941406 -0.0859375 2.765625 -0.265625 C 2.597656 -0.441406 2.515625 -0.664062 2.515625 -0.9375 L 2.515625 -4.5 L 0.765625 -4.5 Z M 0.765625 -5.921875 "/></g></g></g><g fill="#000000" fill-opacity="1"><g transform="translate(119.168337, 86.227045)"><g/></g></g><g fill="#000000" fill-opacity="1"><g transform="translate(126.48495, 86.227045)"><g><path d="M 2.125 2.390625 L 0.625 2.390625 L 0.625 -5.921875 L 2.125 -5.921875 L 2.125 -5.0625 L 2.34375 -5.0625 C 2.5 -5.394531 2.726562 -5.648438 3.03125 -5.828125 C 3.332031 -6.003906 3.722656 -6.09375 4.203125 -6.09375 C 4.546875 -6.09375 4.875 -6.023438 5.1875 -5.890625 C 5.507812 -5.753906 5.785156 -5.554688 6.015625 -5.296875 C 6.253906 -5.035156 6.441406 -4.71875 6.578125 -4.34375 C 6.722656 -3.976562 6.796875 -3.554688 6.796875 -3.078125 L 6.796875 -2.859375 C 6.796875 -2.367188 6.726562 -1.9375 6.59375 -1.5625 C 6.457031 -1.1875 6.269531 -0.867188 6.03125 -0.609375 C 5.800781 -0.359375 5.53125 -0.164062 5.21875 -0.03125 C 4.90625 0.101562 4.566406 0.171875 4.203125 0.171875 C 3.929688 0.171875 3.691406 0.140625 3.484375 0.078125 C 3.285156 0.0234375 3.113281 -0.046875 2.96875 -0.140625 C 2.820312 -0.234375 2.695312 -0.34375 2.59375 -0.46875 C 2.5 -0.59375 2.414062 -0.722656 2.34375 -0.859375 L 2.125 -0.859375 Z M 3.703125 -1.265625 C 4.171875 -1.265625 4.550781 -1.410156 4.84375 -1.703125 C 5.132812 -1.992188 5.28125 -2.390625 5.28125 -2.890625 L 5.28125 -3.03125 C 5.28125 -3.539062 5.132812 -3.9375 4.84375 -4.21875 C 4.550781 -4.507812 4.171875 -4.65625 3.703125 -4.65625 C 3.234375 -4.65625 2.851562 -4.503906 2.5625 -4.203125 C 2.269531 -3.910156 2.125 -3.519531 2.125 -3.03125 L 2.125 -2.890625 C 2.125 -2.398438 2.269531 -2.003906 2.5625 -1.703125 C 2.851562 -1.410156 3.234375 -1.265625 3.703125 -1.265625 Z M 3.703125 -1.265625 "/></g></g></g><g fill="#000000" fill-opacity="1"><g transform="translate(133.801564, 86.227045)"><g><path d="M 6.734375 -2.890625 C 6.734375 -2.398438 6.648438 -1.960938 6.484375 -1.578125 C 6.316406 -1.203125 6.085938 -0.882812 5.796875 -0.625 C 5.515625 -0.363281 5.1875 -0.164062 4.8125 -0.03125 C 4.445312 0.101562 4.0625 0.171875 3.65625 0.171875 C 3.25 0.171875 2.859375 0.101562 2.484375 -0.03125 C 2.117188 -0.164062 1.789062 -0.363281 1.5 -0.625 C 1.21875 -0.882812 0.992188 -1.203125 0.828125 -1.578125 C 0.660156 -1.960938 0.578125 -2.398438 0.578125 -2.890625 L 0.578125 -3.03125 C 0.578125 -3.519531 0.660156 -3.953125 0.828125 -4.328125 C 0.992188 -4.710938 1.21875 -5.035156 1.5 -5.296875 C 1.789062 -5.554688 2.117188 -5.753906 2.484375 -5.890625 C 2.859375 -6.023438 3.25 -6.09375 3.65625 -6.09375 C 4.0625 -6.09375 4.445312 -6.023438 4.8125 -5.890625 C 5.1875 -5.753906 5.515625 -5.554688 5.796875 -5.296875 C 6.085938 -5.035156 6.316406 -4.710938 6.484375 -4.328125 C 6.648438 -3.953125 6.734375 -3.519531 6.734375 -3.03125 Z M 3.65625 -1.265625 C 3.875 -1.265625 4.078125 -1.300781 4.265625 -1.375 C 4.453125 -1.445312 4.617188 -1.550781 4.765625 -1.6875 C 4.910156 -1.820312 5.023438 -1.984375 5.109375 -2.171875 C 5.191406 -2.367188 5.234375 -2.59375 5.234375 -2.84375 L 5.234375 -3.078125 C 5.234375 -3.328125 5.191406 -3.550781 5.109375 -3.75 C 5.023438 -3.945312 4.910156 -4.113281 4.765625 -4.25 C 4.617188 -4.382812 4.453125 -4.484375 4.265625 -4.546875 C 4.078125 -4.617188 3.875 -4.65625 3.65625 -4.65625 C 3.4375 -4.65625 3.234375 -4.617188 3.046875 -4.546875 C 2.859375 -4.484375 2.691406 -4.382812 2.546875 -4.25 C 2.398438 -4.113281 2.285156 -3.945312 2.203125 -3.75 C 2.117188 -3.550781 2.078125 -3.328125 2.078125 -3.078125 L 2.078125 -2.84375 C 2.078125 -2.59375 2.117188 -2.367188 2.203125 -2.171875 C 2.285156 -1.984375 2.398438 -1.820312 2.546875 -1.6875 C 2.691406 -1.550781 2.859375 -1.445312 3.046875 -1.375 C 3.234375 -1.300781 3.4375 -1.265625 3.65625 -1.265625 Z M 3.65625 -1.265625 "/></g></g></g><g fill="#000000" fill-opacity="1"><g transform="translate(141.118177, 86.227045)"><g><path d="M 0.890625 -1.4375 L 2.96875 -1.4375 L 2.96875 -6.9375 L 0.96875 -6.9375 L 0.96875 -8.359375 L 4.484375 -8.359375 L 4.484375 -1.4375 L 6.421875 -1.4375 L 6.421875 0 L 0.890625 0 Z M 0.890625 -1.4375 "/></g></g></g><g fill="#000000" fill-opacity="1"><g transform="translate(148.43479, 86.227045)"><g><path d="M 4.953125 -5.921875 L 6.453125 -5.921875 L 6.453125 1.453125 C 6.453125 1.722656 6.363281 1.945312 6.1875 2.125 C 6.019531 2.300781 5.800781 2.390625 5.53125 2.390625 L 2.015625 2.390625 L 2.015625 0.953125 L 4.625 0.953125 C 4.84375 0.953125 4.953125 0.832031 4.953125 0.59375 L 4.953125 -0.859375 L 4.734375 -0.859375 C 4.472656 -0.171875 3.90625 0.171875 3.03125 0.171875 C 2.738281 0.171875 2.460938 0.117188 2.203125 0.015625 C 1.953125 -0.078125 1.726562 -0.222656 1.53125 -0.421875 C 1.34375 -0.617188 1.195312 -0.863281 1.09375 -1.15625 C 0.988281 -1.457031 0.9375 -1.8125 0.9375 -2.21875 L 0.9375 -5.921875 L 2.4375 -5.921875 L 2.4375 -2.53125 C 2.4375 -2.113281 2.535156 -1.785156 2.734375 -1.546875 C 2.929688 -1.304688 3.234375 -1.1875 3.640625 -1.1875 C 4.085938 -1.1875 4.414062 -1.332031 4.625 -1.625 C 4.84375 -1.914062 4.953125 -2.316406 4.953125 -2.828125 Z M 4.953125 -5.921875 "/></g></g></g></svg>